<svg xmlns="http://www.w3.org/2000/svg" xmlns:xlink="http://www.w3.org/1999/xlink" width="500" zoomAndPan="magnify" viewBox="0 0 375 374.999991" height="500" preserveAspectRatio="xMidYMid meet" version="1.0"><defs><g/><clipPath id="ab7a69726f"><path d="M 160.136719 162.097656 L 164.382812 162.097656 L 164.382812 179.035156 L 160.136719 179.035156 Z M 160.136719 162.097656 " clip-rule="nonzero"/></clipPath><clipPath id="5a13d0fac7"><path d="M 141 170 L 149 170 L 149 193 L 141 193 Z M 141 170 " clip-rule="nonzero"/></clipPath><clipPath id="9b46e1b05f"><path d="M 137.246094 173.867188 L 147.179688 170.46875 L 153.734375 189.628906 L 143.800781 193.027344 Z M 137.246094 173.867188 " clip-rule="nonzero"/></clipPath><clipPath id="b6b87f32a3"><path d="M 137.246094 173.867188 L 147.179688 170.46875 L 153.734375 189.628906 L 143.800781 193.027344 Z M 137.246094 173.867188 " clip-rule="nonzero"/></clipPath><clipPath id="1feaf9f342"><path d="M 141 171 L 145 171 L 145 193 L 141 193 Z M 141 171 " clip-rule="nonzero"/></clipPath><clipPath id="4e78a6b5b2"><path d="M 137.246094 173.867188 L 147.179688 170.46875 L 153.734375 189.628906 L 143.800781 193.027344 Z M 137.246094 173.867188 " clip-rule="nonzero"/></clipPath><clipPath id="a6a71d275c"><path d="M 137.246094 173.867188 L 147.179688 170.46875 L 153.734375 189.628906 L 143.800781 193.027344 Z M 137.246094 173.867188 " clip-rule="nonzero"/></clipPath><clipPath id="6ca92681e5"><path d="M 160.136719 195.96875 L 164.382812 195.96875 L 164.382812 212.90625 L 160.136719 212.90625 Z M 160.136719 195.96875 " clip-rule="nonzero"/></clipPath><clipPath id="7d3360cdb7"><path d="M 170.820312 196.71875 L 175.066406 196.71875 L 175.066406 212.90625 L 170.820312 212.90625 Z M 170.820312 196.71875 " clip-rule="nonzero"/></clipPath><clipPath id="003dfc9fd8"><path d="M 170.820312 162.097656 L 175.066406 162.097656 L 175.066406 179.035156 L 170.820312 179.035156 Z M 170.820312 162.097656 " clip-rule="nonzero"/></clipPath><clipPath id="2ce10082eb"><path d="M 140.371094 160.675781 L 150.121094 160.675781 L 150.121094 170.425781 L 140.371094 170.425781 Z M 140.371094 160.675781 " clip-rule="nonzero"/></clipPath></defs><rect x="-37.5" width="450" fill="#ffffff" y="-37.499999" height="449.999989" fill-opacity="1"/><rect x="-37.5" width="450" fill="#ffffff" y="-37.499999" height="449.999989" fill-opacity="1"/><g fill="#000000" fill-opacity="1"><g transform="translate(105.871303, 204.453396)"><g><path d="M 28.859375 -17.328125 C 30.753906 -16.660156 32.238281 -15.625 33.3125 -14.21875 C 34.394531 -12.8125 34.9375 -11.109375 34.9375 -9.109375 C 34.9375 -6.203125 33.765625 -3.957031 31.421875 -2.375 C 29.078125 -0.789062 25.691406 0 21.265625 0 L 3.328125 0 L 3.328125 -33.234375 L 20.3125 -33.234375 C 24.550781 -33.234375 27.78125 -32.445312 30 -30.875 C 32.21875 -29.3125 33.328125 -27.203125 33.328125 -24.546875 C 33.328125 -22.960938 32.9375 -21.546875 32.15625 -20.296875 C 31.382812 -19.046875 30.285156 -18.054688 28.859375 -17.328125 Z M 12.625 -26.4375 L 12.625 -20.03125 L 19.078125 -20.03125 C 22.242188 -20.03125 23.828125 -21.109375 23.828125 -23.265625 C 23.828125 -25.378906 22.242188 -26.4375 19.078125 -26.4375 Z M 20.5 -6.78125 C 23.789062 -6.78125 25.4375 -7.90625 25.4375 -10.15625 C 25.4375 -12.40625 23.789062 -13.53125 20.5 -13.53125 L 12.625 -13.53125 L 12.625 -6.78125 Z M 20.5 -6.78125 "/></g></g></g><g fill="#000000" fill-opacity="1"><g transform="translate(137.533539, 204.453396)"><g><path d="M 3.328125 -33.234375 L 12.71875 -33.234375 L 12.71875 0 L 3.328125 0 Z M 3.328125 -33.234375 "/></g></g></g><g fill="#000000" fill-opacity="1"><g transform="translate(148.783842, 204.453396)"><g><path d="M 19.890625 0.671875 C 16.410156 0.671875 13.285156 -0.0625 10.515625 -1.53125 C 7.742188 -3.007812 5.566406 -5.0625 3.984375 -7.6875 C 2.398438 -10.3125 1.609375 -13.285156 1.609375 -16.609375 C 1.609375 -19.929688 2.398438 -22.90625 3.984375 -25.53125 C 5.566406 -28.164062 7.742188 -30.21875 10.515625 -31.6875 C 13.285156 -33.15625 16.410156 -33.890625 19.890625 -33.890625 C 22.929688 -33.890625 25.664062 -33.351562 28.09375 -32.28125 C 30.53125 -31.207031 32.554688 -29.65625 34.171875 -27.625 L 28.203125 -22.21875 C 26.046875 -24.8125 23.429688 -26.109375 20.359375 -26.109375 C 18.554688 -26.109375 16.953125 -25.710938 15.546875 -24.921875 C 14.140625 -24.128906 13.046875 -23.015625 12.265625 -21.578125 C 11.492188 -20.140625 11.109375 -18.484375 11.109375 -16.609375 C 11.109375 -14.742188 11.492188 -13.09375 12.265625 -11.65625 C 13.046875 -10.21875 14.140625 -9.101562 15.546875 -8.3125 C 16.953125 -7.519531 18.554688 -7.125 20.359375 -7.125 C 23.429688 -7.125 26.046875 -8.421875 28.203125 -11.015625 L 34.171875 -5.59375 C 32.554688 -3.570312 30.53125 -2.019531 28.09375 -0.9375 C 25.664062 0.132812 22.929688 0.671875 19.890625 0.671875 Z M 19.890625 0.671875 "/></g></g></g><g fill="#000000" fill-opacity="1"><g transform="translate(178.974516, 204.453396)"><g><path d="M 11.484375 -22.640625 C 12.398438 -23.816406 13.59375 -24.695312 15.0625 -25.28125 C 16.539062 -25.863281 18.226562 -26.15625 20.125 -26.15625 L 20.125 -18.03125 C 19.300781 -18.132812 18.617188 -18.1875 18.078125 -18.1875 C 16.148438 -18.1875 14.640625 -17.660156 13.546875 -16.609375 C 12.460938 -15.566406 11.921875 -13.96875 11.921875 -11.8125 L 11.921875 0 L 2.890625 0 L 2.890625 -25.734375 L 11.484375 -25.734375 Z M 11.484375 -22.640625 "/></g></g></g><g fill="#000000" fill-opacity="1"><g transform="translate(195.161651, 204.453396)"><g><path d="M 30 -25.734375 L 18.890625 1.046875 C 17.597656 4.210938 16.015625 6.4375 14.140625 7.71875 C 12.273438 9 10 9.640625 7.3125 9.640625 C 5.945312 9.640625 4.578125 9.425781 3.203125 9 C 1.828125 8.570312 0.710938 8.007812 -0.140625 7.3125 L 2.984375 1 C 3.492188 1.46875 4.101562 1.835938 4.8125 2.109375 C 5.53125 2.378906 6.253906 2.515625 6.984375 2.515625 C 7.835938 2.515625 8.539062 2.335938 9.09375 1.984375 C 9.644531 1.640625 10.109375 1.085938 10.484375 0.328125 L -0.515625 -25.734375 L 8.734375 -25.734375 L 15.046875 -10.015625 L 21.40625 -25.734375 Z M 30 -25.734375 "/></g></g></g><g fill="#000000" fill-opacity="1"><g transform="translate(219.750918, 204.453396)"><g><path d="M 19.078125 -26.15625 C 21.421875 -26.15625 23.550781 -25.609375 25.46875 -24.515625 C 27.382812 -23.421875 28.898438 -21.867188 30.015625 -19.859375 C 31.140625 -17.847656 31.703125 -15.515625 31.703125 -12.859375 C 31.703125 -10.203125 31.140625 -7.867188 30.015625 -5.859375 C 28.898438 -3.847656 27.382812 -2.296875 25.46875 -1.203125 C 23.550781 -0.117188 21.421875 0.421875 19.078125 0.421875 C 16.078125 0.421875 13.691406 -0.476562 11.921875 -2.28125 L 11.921875 9.203125 L 2.890625 9.203125 L 2.890625 -25.734375 L 11.484375 -25.734375 L 11.484375 -23.171875 C 13.160156 -25.160156 15.691406 -26.15625 19.078125 -26.15625 Z M 17.1875 -6.734375 C 18.769531 -6.734375 20.066406 -7.28125 21.078125 -8.375 C 22.085938 -9.46875 22.59375 -10.960938 22.59375 -12.859375 C 22.59375 -14.765625 22.085938 -16.257812 21.078125 -17.34375 C 20.066406 -18.4375 18.769531 -18.984375 17.1875 -18.984375 C 15.601562 -18.984375 14.300781 -18.4375 13.28125 -17.34375 C 12.269531 -16.257812 11.765625 -14.765625 11.765625 -12.859375 C 11.765625 -10.960938 12.269531 -9.46875 13.28125 -8.375 C 14.300781 -7.28125 15.601562 -6.734375 17.1875 -6.734375 Z M 17.1875 -6.734375 "/></g></g></g><g fill="#000000" fill-opacity="1"><g transform="translate(247.900392, 204.453396)"><g><path d="M 20.65625 -1.046875 C 19.894531 -0.566406 18.96875 -0.203125 17.875 0.046875 C 16.78125 0.296875 15.617188 0.421875 14.390625 0.421875 C 11.023438 0.421875 8.441406 -0.398438 6.640625 -2.046875 C 4.835938 -3.691406 3.9375 -6.144531 3.9375 -9.40625 L 3.9375 -18.03125 L 0.1875 -18.03125 L 0.1875 -24.78125 L 3.9375 -24.78125 L 3.9375 -31.46875 L 12.953125 -31.46875 L 12.953125 -24.78125 L 18.84375 -24.78125 L 18.84375 -18.03125 L 12.953125 -18.03125 L 12.953125 -9.5 C 12.953125 -8.570312 13.195312 -7.847656 13.6875 -7.328125 C 14.1875 -6.804688 14.847656 -6.546875 15.671875 -6.546875 C 16.710938 -6.546875 17.628906 -6.816406 18.421875 -7.359375 Z M 20.65625 -1.046875 "/></g></g></g><g clip-path="url(#ab7a69726f)"><path fill="#000000" d="M 160.136719 162.097656 L 164.382812 162.097656 L 164.382812 179.035156 L 160.136719 179.035156 Z M 160.136719 162.097656 " fill-opacity="1" fill-rule="nonzero"/></g><g clip-path="url(#5a13d0fac7)"><g clip-path="url(#9b46e1b05f)"><g clip-path="url(#b6b87f32a3)"><path fill="#ffffff" d="M 142.027344 172.230469 L 146.894531 170.566406 L 145.269531 178.425781 L 148.125 177.449219 L 143.730469 192.824219 L 144.296875 181.871094 L 141.242188 183.085938 Z M 142.027344 172.230469 " fill-opacity="1" fill-rule="nonzero"/></g></g></g><g clip-path="url(#1feaf9f342)"><g clip-path="url(#4e78a6b5b2)"><g clip-path="url(#a6a71d275c)"><path fill="#000000" d="M 142.027344 172.230469 L 142.867188 171.941406 L 141.242188 183.085938 Z M 143.730469 192.824219 L 144.882812 181.671875 L 144.296875 181.871094 Z M 143.730469 192.824219 " fill-opacity="1" fill-rule="nonzero"/></g></g></g><g clip-path="url(#6ca92681e5)"><path fill="#000000" d="M 160.136719 195.96875 L 164.382812 195.96875 L 164.382812 212.90625 L 160.136719 212.90625 Z M 160.136719 195.96875 " fill-opacity="1" fill-rule="nonzero"/></g><g clip-path="url(#7d3360cdb7)"><path fill="#000000" d="M 170.820312 196.71875 L 175.066406 196.71875 L 175.066406 212.910156 L 170.820312 212.910156 Z M 170.820312 196.71875 " fill-opacity="1" fill-rule="nonzero"/></g><g clip-path="url(#003dfc9fd8)"><path fill="#000000" d="M 170.820312 162.097656 L 175.066406 162.097656 L 175.066406 179.035156 L 170.820312 179.035156 Z M 170.820312 162.097656 " fill-opacity="1" fill-rule="nonzero"/></g><g clip-path="url(#2ce10082eb)"><path fill="#000000" d="M 145.246094 160.675781 C 142.558594 160.675781 140.371094 162.863281 140.371094 165.550781 C 140.371094 168.238281 142.558594 170.425781 145.246094 170.425781 C 147.933594 170.425781 150.121094 168.238281 150.121094 165.550781 C 150.121094 162.863281 147.933594 160.675781 145.246094 160.675781 Z M 145.246094 161.648438 C 147.40625 161.648438 149.144531 163.390625 149.144531 165.550781 C 149.144531 167.710938 147.40625 169.449219 145.246094 169.449219 C 143.085938 169.449219 141.34375 167.710938 141.34375 165.550781 C 141.34375 163.390625 143.085938 161.648438 145.246094 161.648438 Z M 145.246094 163.117188 C 144.621094 163.117188 143.996094 163.351562 143.523438 163.828125 C 142.574219 164.773438 142.574219 166.324219 143.523438 167.273438 C 144.46875 168.222656 146.019531 168.222656 146.96875 167.273438 L 146.28125 166.585938 C 145.703125 167.160156 144.785156 167.160156 144.210938 166.585938 C 143.636719 166.007812 143.636719 165.089844 144.210938 164.515625 C 144.785156 163.941406 145.703125 163.941406 146.28125 164.515625 L 146.96875 163.828125 C 146.496094 163.351562 145.871094 163.117188 145.246094 163.117188 Z M 145.246094 163.117188 " fill-opacity="1" fill-rule="nonzero"/></g></svg>