<svg xmlns="http://www.w3.org/2000/svg" xmlns:xlink="http://www.w3.org/1999/xlink" width="250" zoomAndPan="magnify" viewBox="0 0 187.5 83.999999" height="112" preserveAspectRatio="xMidYMid meet" version="1.0"><defs><g/><clipPath id="f6315de628"><path d="M 67.214844 16.4375 L 71.449219 16.4375 L 71.449219 33.328125 L 67.214844 33.328125 Z M 67.214844 16.4375 " clip-rule="nonzero"/></clipPath><clipPath id="56239b25a0"><path d="M 67.214844 50.21875 L 71.449219 50.21875 L 71.449219 67.109375 L 67.214844 67.109375 Z M 67.214844 50.21875 " clip-rule="nonzero"/></clipPath><clipPath id="5e17063fcb"><path d="M 77.871094 50.964844 L 82.109375 50.964844 L 82.109375 67.109375 L 77.871094 67.109375 Z M 77.871094 50.964844 " clip-rule="nonzero"/></clipPath><clipPath id="e22007b92e"><path d="M 77.871094 16.4375 L 82.109375 16.4375 L 82.109375 33.328125 L 77.871094 33.328125 Z M 77.871094 16.4375 " clip-rule="nonzero"/></clipPath><clipPath id="4b0360b742"><path d="M 45.457031 12.398438 L 56.679688 12.398438 L 56.679688 23.621094 L 45.457031 23.621094 Z M 45.457031 12.398438 " clip-rule="nonzero"/></clipPath></defs><g fill="#ffffff" fill-opacity="1"><g transform="translate(11.749308, 58.680986)"><g><path d="M 28.78125 -17.28125 C 30.675781 -16.613281 32.160156 -15.578125 33.234375 -14.171875 C 34.304688 -12.773438 34.84375 -11.082031 34.84375 -9.09375 C 34.84375 -6.1875 33.675781 -3.941406 31.34375 -2.359375 C 29.007812 -0.785156 25.628906 0 21.203125 0 L 3.3125 0 L 3.3125 -33.140625 L 20.265625 -33.140625 C 24.492188 -33.140625 27.710938 -32.359375 29.921875 -30.796875 C 32.128906 -29.234375 33.234375 -27.128906 33.234375 -24.484375 C 33.234375 -22.898438 32.847656 -21.484375 32.078125 -20.234375 C 31.304688 -18.992188 30.207031 -18.007812 28.78125 -17.28125 Z M 12.59375 -26.375 L 12.59375 -19.984375 L 19.03125 -19.984375 C 22.1875 -19.984375 23.765625 -21.054688 23.765625 -23.203125 C 23.765625 -25.316406 22.1875 -26.375 19.03125 -26.375 Z M 20.453125 -6.765625 C 23.734375 -6.765625 25.375 -7.882812 25.375 -10.125 C 25.375 -12.375 23.734375 -13.5 20.453125 -13.5 L 12.59375 -13.5 L 12.59375 -6.765625 Z M 20.453125 -6.765625 "/></g></g></g><g fill="#ffffff" fill-opacity="1"><g transform="translate(43.327337, 58.680986)"><g><path d="M 3.3125 -33.140625 L 12.6875 -33.140625 L 12.6875 0 L 3.3125 0 Z M 3.3125 -33.140625 "/></g></g></g><g fill="#ffffff" fill-opacity="1"><g transform="translate(54.54772, 58.680986)"><g><path d="M 19.84375 0.65625 C 16.363281 0.65625 13.242188 -0.0703125 10.484375 -1.53125 C 7.722656 -3 5.550781 -5.039062 3.96875 -7.65625 C 2.394531 -10.28125 1.609375 -13.25 1.609375 -16.5625 C 1.609375 -19.882812 2.394531 -22.851562 3.96875 -25.46875 C 5.550781 -28.09375 7.722656 -30.132812 10.484375 -31.59375 C 13.242188 -33.0625 16.363281 -33.796875 19.84375 -33.796875 C 22.863281 -33.796875 25.585938 -33.257812 28.015625 -32.1875 C 30.453125 -31.113281 32.476562 -29.566406 34.09375 -27.546875 L 28.125 -22.15625 C 25.976562 -24.738281 23.375 -26.03125 20.3125 -26.03125 C 18.507812 -26.03125 16.90625 -25.632812 15.5 -24.84375 C 14.09375 -24.0625 13.003906 -22.953125 12.234375 -21.515625 C 11.460938 -20.078125 11.078125 -18.425781 11.078125 -16.5625 C 11.078125 -14.707031 11.460938 -13.0625 12.234375 -11.625 C 13.003906 -10.1875 14.09375 -9.070312 15.5 -8.28125 C 16.90625 -7.488281 18.507812 -7.09375 20.3125 -7.09375 C 23.375 -7.09375 25.976562 -8.390625 28.125 -10.984375 L 34.09375 -5.59375 C 32.476562 -3.570312 30.453125 -2.023438 28.015625 -0.953125 C 25.585938 0.117188 22.863281 0.65625 19.84375 0.65625 Z M 19.84375 0.65625 "/></g></g></g><g fill="#ffffff" fill-opacity="1"><g transform="translate(84.6581, 58.680986)"><g><path d="M 11.453125 -22.578125 C 12.367188 -23.742188 13.5625 -24.617188 15.03125 -25.203125 C 16.5 -25.796875 18.179688 -26.09375 20.078125 -26.09375 L 20.078125 -17.984375 C 19.253906 -18.078125 18.570312 -18.125 18.03125 -18.125 C 16.113281 -18.125 14.609375 -17.601562 13.515625 -16.5625 C 12.429688 -15.53125 11.890625 -13.9375 11.890625 -11.78125 L 11.890625 0 L 2.890625 0 L 2.890625 -25.65625 L 11.453125 -25.65625 Z M 11.453125 -22.578125 "/></g></g></g><g fill="#ffffff" fill-opacity="1"><g transform="translate(100.802185, 58.680986)"><g><path d="M 29.921875 -25.65625 L 18.84375 1.046875 C 17.550781 4.203125 15.972656 6.414062 14.109375 7.6875 C 12.242188 8.96875 9.972656 9.609375 7.296875 9.609375 C 5.929688 9.609375 4.5625 9.394531 3.1875 8.96875 C 1.820312 8.539062 0.710938 7.984375 -0.140625 7.296875 L 2.984375 1 C 3.484375 1.46875 4.085938 1.835938 4.796875 2.109375 C 5.515625 2.378906 6.234375 2.515625 6.953125 2.515625 C 7.804688 2.515625 8.507812 2.335938 9.0625 1.984375 C 9.613281 1.640625 10.082031 1.085938 10.46875 0.328125 L -0.515625 -25.65625 L 8.71875 -25.65625 L 15.015625 -9.984375 L 21.359375 -25.65625 Z M 29.921875 -25.65625 "/></g></g></g><g fill="#ffffff" fill-opacity="1"><g transform="translate(125.326054, 58.680986)"><g><path d="M 19.03125 -26.09375 C 21.363281 -26.09375 23.484375 -25.546875 25.390625 -24.453125 C 27.304688 -23.359375 28.820312 -21.8125 29.9375 -19.8125 C 31.0625 -17.8125 31.625 -15.484375 31.625 -12.828125 C 31.625 -10.179688 31.0625 -7.851562 29.9375 -5.84375 C 28.820312 -3.84375 27.304688 -2.296875 25.390625 -1.203125 C 23.484375 -0.117188 21.363281 0.421875 19.03125 0.421875 C 16.03125 0.421875 13.648438 -0.472656 11.890625 -2.265625 L 11.890625 9.1875 L 2.890625 9.1875 L 2.890625 -25.65625 L 11.453125 -25.65625 L 11.453125 -23.109375 C 13.128906 -25.097656 15.65625 -26.09375 19.03125 -26.09375 Z M 17.140625 -6.71875 C 18.710938 -6.71875 20.003906 -7.257812 21.015625 -8.34375 C 22.023438 -9.4375 22.53125 -10.929688 22.53125 -12.828125 C 22.53125 -14.722656 22.023438 -16.210938 21.015625 -17.296875 C 20.003906 -18.390625 18.710938 -18.9375 17.140625 -18.9375 C 15.554688 -18.9375 14.257812 -18.390625 13.25 -17.296875 C 12.238281 -16.210938 11.734375 -14.722656 11.734375 -12.828125 C 11.734375 -10.929688 12.238281 -9.4375 13.25 -8.34375 C 14.257812 -7.257812 15.554688 -6.71875 17.140625 -6.71875 Z M 17.140625 -6.71875 "/></g></g></g><g fill="#ffffff" fill-opacity="1"><g transform="translate(153.400664, 58.680986)"><g><path d="M 20.59375 -1.046875 C 19.832031 -0.566406 18.90625 -0.203125 17.8125 0.046875 C 16.726562 0.296875 15.570312 0.421875 14.34375 0.421875 C 11 0.421875 8.425781 -0.394531 6.625 -2.03125 C 4.820312 -3.675781 3.921875 -6.125 3.921875 -9.375 L 3.921875 -17.984375 L 0.1875 -17.984375 L 0.1875 -24.71875 L 3.921875 -24.71875 L 3.921875 -31.390625 L 12.921875 -31.390625 L 12.921875 -24.71875 L 18.796875 -24.71875 L 18.796875 -17.984375 L 12.921875 -17.984375 L 12.921875 -9.46875 C 12.921875 -8.550781 13.164062 -7.832031 13.65625 -7.3125 C 14.144531 -6.789062 14.800781 -6.53125 15.625 -6.53125 C 16.664062 -6.53125 17.582031 -6.800781 18.375 -7.34375 Z M 20.59375 -1.046875 "/></g></g></g><g clip-path="url(#f6315de628)"><path fill="#ffffff" d="M 67.214844 16.4375 L 71.449219 16.4375 L 71.449219 33.328125 L 67.214844 33.328125 Z M 67.214844 16.4375 " fill-opacity="1" fill-rule="nonzero"/></g><g clip-path="url(#56239b25a0)"><path fill="#ffffff" d="M 67.214844 50.21875 L 71.449219 50.21875 L 71.449219 67.113281 L 67.214844 67.113281 Z M 67.214844 50.21875 " fill-opacity="1" fill-rule="nonzero"/></g><g clip-path="url(#5e17063fcb)"><path fill="#ffffff" d="M 77.871094 50.964844 L 82.109375 50.964844 L 82.109375 67.113281 L 77.871094 67.113281 Z M 77.871094 50.964844 " fill-opacity="1" fill-rule="nonzero"/></g><g clip-path="url(#e22007b92e)"><path fill="#ffffff" d="M 77.871094 16.4375 L 82.109375 16.4375 L 82.109375 33.328125 L 77.871094 33.328125 Z M 77.871094 16.4375 " fill-opacity="1" fill-rule="nonzero"/></g><g clip-path="url(#4b0360b742)"><path fill="#ffffff" d="M 50.988281 12.398438 C 47.941406 12.398438 45.457031 14.878906 45.457031 17.925781 C 45.457031 20.972656 47.941406 23.457031 50.988281 23.457031 C 54.035156 23.457031 56.515625 20.972656 56.515625 17.925781 C 56.515625 14.878906 54.035156 12.398438 50.988281 12.398438 Z M 50.988281 13.503906 C 53.4375 13.503906 55.410156 15.476562 55.410156 17.925781 C 55.410156 20.375 53.4375 22.351562 50.988281 22.351562 C 48.539062 22.351562 46.5625 20.375 46.5625 17.925781 C 46.5625 15.476562 48.539062 13.503906 50.988281 13.503906 Z M 50.988281 15.167969 C 50.277344 15.167969 49.570312 15.4375 49.03125 15.972656 C 47.957031 17.046875 47.957031 18.808594 49.03125 19.882812 C 50.105469 20.957031 51.867188 20.957031 52.941406 19.882812 L 52.160156 19.101562 C 51.507812 19.753906 50.464844 19.753906 49.8125 19.101562 C 49.160156 18.449219 49.160156 17.40625 49.8125 16.753906 C 50.464844 16.101562 51.507812 16.101562 52.160156 16.753906 L 52.941406 15.972656 C 52.402344 15.4375 51.695312 15.167969 50.988281 15.167969 Z M 50.988281 15.167969 " fill-opacity="1" fill-rule="nonzero"/></g></svg>